#!OML:ASF E:\motion texture\Top Level 1\Subject 1\Session 1\male.ASF
:FULLY-SPECIFIED
:DEGREES
164
root 35.6063 17.5344 5.37043 152.425 -86.6997 -144.013
lowerback -2.18747 1.58678 2.43177
upperback -0.501273 2.057 -0.0832717
thorax 0.800434 1.03138 -1.38737
lowerneck -20.0103 -2.13374 -5.28557
upperneck 12.708 -2.58105 6.59476
head 7.32934 -0.873967 2.72689
rclavicle 3.36692e-015 -9.98893e-015
rhumerus -20.6531 14.7656 -95.3225
rradius 57.1841
rwrist 15.059
rhand -21.7302 -27.2808
rfingers 7.12502
rthumb 4.66928 -57.2093
lclavicle 3.36692e-015 -9.98893e-015
lhumerus -22.9824 -2.45801 92.4975
lradius 48.4006
lwrist -4.84261
lhand -14.9058 26.7074
lfingers 7.12502
lthumb 11.2556 56.3855
rfemur -19.5423 -5.03708 20.0728
rtibia 59.7845
rfoot 4.4991 -13.9609
rtoes 5.35362
lfemur -23.3596 -6.10949 -18.5307
ltibia 20.2973
lfoot -4.06534 2.99772
ltoes 4.46644
165
root 35.4775 17.5466 5.38078 153.776 -86.8964 -145.512
lowerback -2.14853 1.53448 2.30654
upperback -0.491223 1.9913 -0.0873341
thorax 0.782042 0.998288 -1.32453
lowerneck -19.9803 -2.10613 -5.22719
upperneck 12.7763 -2.55928 6.56447
head 7.34417 -0.86365 2.71053
rclavicle 3.09048e-014 -4.32357e-015
rhumerus -20.1984 15.3117 -95.3172
rradius 57.9934
rwrist 15.301
rhand -21.9886 -27.2357
rfingers 7.12502
rthumb 4.41976 -57.1696
lclavicle 3.09048e-014 -4.32357e-015
lhumerus -22.4553 -3.665 92.8437
lradius 49.0067
lwrist -4.45473
lhand -14.8914 26.7573
lfingers 7.12502
lthumb 11.2695 56.4346
rfemur -20.5174 -5.28365 19.8235
rtibia 60.4387
rfoot 4.46754 -14.3098
rtoes 5.64742
lfemur -22.5768 -6.17452 -18.9212
ltibia 20.0746
lfoot -4.41079 2.87817
ltoes 4.60062
166
root 35.3494 17.5583 5.39064 155.188 -87.092 -147.067
lowerback -2.11013 1.48119 2.18752
upperback -0.483226 1.924 -0.0893297
thorax 0.762186 0.964371 -1.26303
lowerneck -19.9497 -2.07864 -5.16895
upperneck 12.8388 -2.53754 6.53525
head 7.35708 -0.853292 2.69448
rclavicle -9.42364e-015 4.77083e-015
rhumerus -19.7239 15.8555 -95.2958
rradius 58.8049
rwrist 15.5418
rhand -22.2416 -27.1884
rfingers 7.12502
rthumb 4.17551 -57.1272
lclavicle -9.42364e-015 4.77083e-015
lhumerus -21.9183 -4.86291 93.1605
lradius 49.6251
lwrist -4.0719
lhand -14.8738 26.799
lfingers 7.12502
lthumb 11.2865 56.4754
rfemur -21.4789 -5.52679 19.591
rtibia 60.9672
rfoot 4.35034 -14.6797
rtoes 5.94059
lfemur -21.7967 -6.23278 -19.2994
ltibia 19.8389
lfoot -4.75529 2.75687
ltoes 4.71314
167
root 35.222 17.5692 5.40001 156.674 -87.2873 -148.685
lowerback -2.07277 1.4269 2.07477
upperback -0.47855 1.8551 -0.0897733
thorax 0.739865 0.929608 -1.20343
lowerneck -19.9169 -2.05124 -5.11218
upperneck 12.8949 -2.51596 6.50971
head 7.36761 -0.842814 2.67981
rclavicle -1.85646e-014 2.45996e-015
rhumerus -19.2325 16.3945 -95.2591
rradius 59.6175
rwrist 15.7825
rhand -22.4902 -27.1416
rfingers 7.12502
rthumb 3.93542 -57.085
lclavicle -1.85646e-014 2.45996e-015
lhumerus -21.3729 -6.0473 93.4469
lradius 50.2551
lwrist -3.69578
lhand -14.8523 26.8277
lfingers 7.12502
lthumb 11.3072 56.5029
rfemur -22.425 -5.76622 19.3746
rtibia 61.3658
rfoot 4.15184 -15.0672
rtoes 6.24117
lfemur -21.0241 -6.28458 -19.6659
ltibia 19.5959
lfoot -5.10063 2.63113
ltoes 4.79998
168
root 35.0953 17.5794 5.40884 158.215 -87.4813 -150.352
lowerback -2.03574 1.37155 1.97012
upperback -0.476022 1.78449 -0.0885957
thorax 0.715921 0.893983 -1.14667
lowerneck -19.8857 -2.02431 -5.05546
upperneck 12.9461 -2.49495 6.48574
head 7.37689 -0.832456 2.66555
rclavicle 4.55807e-015 3.35449e-016
rhumerus -18.7217 16.9284 -95.2074
rradius 60.4295
rwrist 16.0203
rhand -22.7308 -27.0898
rfingers 7.12502
rthumb 3.70302 -57.0374
lclavicle 4.55807e-015 3.35449e-016
lhumerus -20.8158 -7.21497 93.7017
lradius 50.8962
lwrist -3.32602
lhand -14.83 26.8562
lfingers 7.12502
lthumb 11.3287 56.5302
rfemur -23.3512 -5.99997 19.1758
rtibia 61.6296
rfoot 3.87653 -15.4649
rtoes 6.54551
lfemur -20.2599 -6.32989 -20.0178
ltibia 19.3469
lfoot -5.4448 2.50151
ltoes 4.86739
169
root 34.9692 17.5889 5.41711 159.829 -87.6747 -152.081
lowerback -1.99959 1.31506 1.87333
upperback -0.476607 1.71207 -0.0863626
thorax 0.689675 0.857425 -1.0932
lowerneck -19.8542 -1.99741 -4.99825
upperneck 12.9902 -2.4741 6.4636
head 7.38383 -0.822021 2.65174
rclavicle 3.5591e-015 -1.06723e-014
rhumerus -18.1938 17.4567 -95.1413
rradius 61.241
rwrist 16.2551
rhand -22.9632 -27.0373
rfingers 7.12502
rthumb 3.4786 -56.9887
lclavicle 3.5591e-015 -1.06723e-014
lhumerus -20.2475 -8.36247 93.924
lradius 51.5467
lwrist -2.96343
lhand -14.8067 26.8822
lfingers 7.12502
lthumb 11.3512 56.555
rfemur -24.2548 -6.22756 18.9934
rtibia 61.7549
rfoot 3.52841 -15.8677
rtoes 6.8511
lfemur -19.5073 -6.36981 -20.3548
ltibia 19.0961
lfoot -5.7886 2.37002
ltoes 4.91739
170
root 34.8436 17.5975 5.42465 161.497 -87.8719 -153.858
lowerback -1.96554 1.25654 1.7809
upperback -0.478646 1.63672 -0.082135
thorax 0.663326 0.819408 -1.04008
lowerneck -19.8227 -1.9709 -4.94223
upperneck 13.0277 -2.45372 6.44484
head 7.38871 -0.811583 2.63912
rclavicle 1.09068e-014 1.70706e-014
rhumerus -17.648 17.9764 -95.0594
rradius 62.0509
rwrist 16.4868
rhand -23.1805 -26.9912
rfingers 7.12502
rthumb 3.26881 -56.9459
lclavicle 1.09068e-014 1.70706e-014
lhumerus -19.6664 -9.48759 94.1156
lradius 52.2052
lwrist -2.60835
lhand -14.7798 26.8993
lfingers 7.12502
lthumb 11.3771 56.5707
rfemur -25.1272 -6.44992 18.8261
rtibia 61.7353
rfoot 3.11123 -16.2701
rtoes 7.16146
lfemur -18.764 -6.40441 -20.6772
ltibia 18.8438
lfoot -6.13187 2.23284
ltoes 4.94897
171
root 34.7184 17.6053 5.43156 163.281 -88.07 -155.741
lowerback -1.93246 1.19733 1.69427
upperback -0.483367 1.56022 -0.0767743
thorax 0.635112 0.78081 -0.98899
lowerneck -19.79 -1.946 -4.88613
upperneck 13.0553 -2.43546 6.4281
head 7.39029 -0.802041 2.6268
rclavicle -1.65084e-014 -8.39865e-015
rhumerus -17.0871 18.4878 -94.9623
rradius 62.8586
rwrist 16.7129
rhand -23.3946 -26.9385
rfingers 7.12502
rthumb 3.06203 -56.8962
lclavicle -1.65084e-014 -8.39865e-015
lhumerus -19.0713 -10.5882 94.2763
lradius 52.8698
lwrist -2.26033
lhand -14.7542 26.927
lfingers 7.12502
lthumb 11.4018 56.597
rfemur -25.9705 -6.66271 18.6728
rtibia 61.5721
rfoot 2.64247 -16.6613
rtoes 7.47032
lfemur -18.0336 -6.43023 -20.9846
ltibia 18.5923
lfoot -6.47492 2.08729
ltoes 4.96388
172
root 34.5935 17.6122 5.4379 165.195 -88.2694 -157.744
lowerback -1.90361 1.13716 1.6155
upperback -0.490219 1.48212 -0.0703773
thorax 0.607447 0.741421 -0.941115
lowerneck -19.758 -1.92245 -4.83271
upperneck 13.075 -2.41867 6.41575
head 7.38962 -0.792951 2.61613
rclavicle -2.54693e-015 7.45443e-016
rhumerus -16.5106 18.9913 -94.8501
rradius 63.6628
rwrist 16.9312
rhand -23.6028 -26.8885
rfingers 7.12502
rthumb 2.861 -56.849
lclavicle -2.54693e-015 7.45443e-016
lhumerus -18.4618 -11.6613 94.4062
lradius 53.5396
lwrist -1.91843
lhand -14.7273 26.9513
lfingers 7.12502
lthumb 11.4277 56.6199
rfemur -26.782 -6.86528 18.5322
rtibia 61.2634
rfoot 2.13491 -17.0329
rtoes 7.75543
lfemur -17.3187 -6.4526 -21.2762
ltibia 18.3447
lfoot -6.8168 1.93701
ltoes 4.96945
173
root 34.4689 17.6182 5.44358 167.302 -88.4704 -159.931
lowerback -1.87621 1.0759 1.54352
upperback -0.499464 1.40236 -0.0633066
thorax 0.578476 0.701199 -0.896289
lowerneck -19.7263 -1.89965 -4.78064
upperneck 13.0861 -2.40276 6.40728
head 7.38628 -0.784039 2.60677
rclavicle 2.68359e-015 4.82053e-015
rhumerus -15.9193 19.4861 -94.7241
rradius 64.4612
rwrist 17.1428
rhand -23.8088 -26.8401
rfingers 7.12502
rthumb 2.66199 -56.8032
lclavicle 2.68359e-015 4.82053e-015
lhumerus -17.8378 -12.7053 94.5051
lradius 54.2131
lwrist -1.58312
lhand -14.6995 26.9738
lfingers 7.12502
lthumb 11.4545 56.6408
rfemur -27.5578 -7.05645 18.4032
rtibia 60.8095
rfoot 1.59586 -17.3757
rtoes 7.99598
lfemur -16.6174 -6.46734 -21.552
ltibia 18.1007
lfoot -7.15699 1.77793
ltoes 4.9648
